<?xml version="1.0" encoding="utf-8" standalone="no"?>
<!DOCTYPE svg PUBLIC "-//W3C//DTD SVG 1.1//EN"
  "http://www.w3.org/Graphics/SVG/1.1/DTD/svg11.dtd">
<svg xmlns:xlink="http://www.w3.org/1999/xlink" width="460.8pt" height="345.6pt" viewBox="0 0 460.8 345.6" xmlns="http://www.w3.org/2000/svg" version="1.1">
 <metadata>
  <rdf:RDF xmlns:dc="http://purl.org/dc/elements/1.1/" xmlns:cc="http://creativecommons.org/ns#" xmlns:rdf="http://www.w3.org/1999/02/22-rdf-syntax-ns#">
   <cc:Work>
    <dc:type rdf:resource="http://purl.org/dc/dcmitype/StillImage"/>
    <dc:date>2024-09-02T16:36:43.798483</dc:date>
    <dc:format>image/svg+xml</dc:format>
    <dc:creator>
     <cc:Agent>
      <dc:title>Matplotlib v3.8.1, https://matplotlib.org/</dc:title>
     </cc:Agent>
    </dc:creator>
   </cc:Work>
  </rdf:RDF>
 </metadata>
 <defs>
  <style type="text/css">*{stroke-linejoin: round; stroke-linecap: butt}</style>
 </defs>
 <g id="figure_1">
  <g id="patch_1">
   <path d="M 0 345.6 
L 460.8 345.6 
L 460.8 0 
L 0 0 
z
" style="fill: #ffffff"/>
  </g>
  <g id="axes_1">
   <g id="patch_2">
    <path d="M 57.6 307.584 
L 414.72 307.584 
L 414.72 41.472 
L 57.6 41.472 
z
" style="fill: #eaeaf2"/>
   </g>
   <g id="matplotlib.axis_1">
    <g id="xtick_1">
     <g id="line2d_1">
      <path d="M 73.794319 307.584 
L 73.794319 41.472 
" clip-path="url(#p9bc5218df3)" style="fill: none; stroke: #ffffff; stroke-opacity: 0.3; stroke-linecap: round"/>
     </g>
     <g id="line2d_2"/>
     <g id="text_1">
      <!-- 0 -->
      <g style="fill: #262626" transform="translate(71.01385 318.241812) scale(0.1 -0.1)">
       <defs>
        <path id="ArialMT-30" d="M 266 2259 
Q 266 3072 433 3567 
Q 600 4063 929 4331 
Q 1259 4600 1759 4600 
Q 2128 4600 2406 4451 
Q 2684 4303 2865 4023 
Q 3047 3744 3150 3342 
Q 3253 2941 3253 2259 
Q 3253 1453 3087 958 
Q 2922 463 2592 192 
Q 2263 -78 1759 -78 
Q 1097 -78 719 397 
Q 266 969 266 2259 
z
M 844 2259 
Q 844 1131 1108 757 
Q 1372 384 1759 384 
Q 2147 384 2411 759 
Q 2675 1134 2675 2259 
Q 2675 3391 2411 3762 
Q 2147 4134 1753 4134 
Q 1366 4134 1134 3806 
Q 844 3388 844 2259 
z
" transform="scale(0.015625)"/>
       </defs>
       <use xlink:href="#ArialMT-30"/>
      </g>
     </g>
    </g>
    <g id="xtick_2">
     <g id="line2d_3">
      <path d="M 144.420848 307.584 
L 144.420848 41.472 
" clip-path="url(#p9bc5218df3)" style="fill: none; stroke: #ffffff; stroke-opacity: 0.3; stroke-linecap: round"/>
     </g>
     <g id="line2d_4"/>
     <g id="text_2">
      <!-- 50 -->
      <g style="fill: #262626" transform="translate(138.85991 318.241812) scale(0.1 -0.1)">
       <defs>
        <path id="ArialMT-35" d="M 266 1200 
L 856 1250 
Q 922 819 1161 601 
Q 1400 384 1738 384 
Q 2144 384 2425 690 
Q 2706 997 2706 1503 
Q 2706 1984 2436 2262 
Q 2166 2541 1728 2541 
Q 1456 2541 1237 2417 
Q 1019 2294 894 2097 
L 366 2166 
L 809 4519 
L 3088 4519 
L 3088 3981 
L 1259 3981 
L 1013 2750 
Q 1425 3038 1878 3038 
Q 2478 3038 2890 2622 
Q 3303 2206 3303 1553 
Q 3303 931 2941 478 
Q 2500 -78 1738 -78 
Q 1113 -78 717 272 
Q 322 622 266 1200 
z
" transform="scale(0.015625)"/>
       </defs>
       <use xlink:href="#ArialMT-35"/>
       <use xlink:href="#ArialMT-30" x="55.615234"/>
      </g>
     </g>
    </g>
    <g id="xtick_3">
     <g id="line2d_5">
      <path d="M 215.047376 307.584 
L 215.047376 41.472 
" clip-path="url(#p9bc5218df3)" style="fill: none; stroke: #ffffff; stroke-opacity: 0.3; stroke-linecap: round"/>
     </g>
     <g id="line2d_6"/>
     <g id="text_3">
      <!-- 100 -->
      <g style="fill: #262626" transform="translate(206.70597 318.241812) scale(0.1 -0.1)">
       <defs>
        <path id="ArialMT-31" d="M 2384 0 
L 1822 0 
L 1822 3584 
Q 1619 3391 1289 3197 
Q 959 3003 697 2906 
L 697 3450 
Q 1169 3672 1522 3987 
Q 1875 4303 2022 4600 
L 2384 4600 
L 2384 0 
z
" transform="scale(0.015625)"/>
       </defs>
       <use xlink:href="#ArialMT-31"/>
       <use xlink:href="#ArialMT-30" x="55.615234"/>
       <use xlink:href="#ArialMT-30" x="111.230469"/>
      </g>
     </g>
    </g>
    <g id="xtick_4">
     <g id="line2d_7">
      <path d="M 285.673905 307.584 
L 285.673905 41.472 
" clip-path="url(#p9bc5218df3)" style="fill: none; stroke: #ffffff; stroke-opacity: 0.3; stroke-linecap: round"/>
     </g>
     <g id="line2d_8"/>
     <g id="text_4">
      <!-- 150 -->
      <g style="fill: #262626" transform="translate(277.332499 318.241812) scale(0.1 -0.1)">
       <use xlink:href="#ArialMT-31"/>
       <use xlink:href="#ArialMT-35" x="55.615234"/>
       <use xlink:href="#ArialMT-30" x="111.230469"/>
      </g>
     </g>
    </g>
    <g id="xtick_5">
     <g id="line2d_9">
      <path d="M 356.300434 307.584 
L 356.300434 41.472 
" clip-path="url(#p9bc5218df3)" style="fill: none; stroke: #ffffff; stroke-opacity: 0.3; stroke-linecap: round"/>
     </g>
     <g id="line2d_10"/>
     <g id="text_5">
      <!-- 200 -->
      <g style="fill: #262626" transform="translate(347.959028 318.241812) scale(0.1 -0.1)">
       <defs>
        <path id="ArialMT-32" d="M 3222 541 
L 3222 0 
L 194 0 
Q 188 203 259 391 
Q 375 700 629 1000 
Q 884 1300 1366 1694 
Q 2113 2306 2375 2664 
Q 2638 3022 2638 3341 
Q 2638 3675 2398 3904 
Q 2159 4134 1775 4134 
Q 1369 4134 1125 3890 
Q 881 3647 878 3216 
L 300 3275 
Q 359 3922 746 4261 
Q 1134 4600 1788 4600 
Q 2447 4600 2831 4234 
Q 3216 3869 3216 3328 
Q 3216 3053 3103 2787 
Q 2991 2522 2730 2228 
Q 2469 1934 1863 1422 
Q 1356 997 1212 845 
Q 1069 694 975 541 
L 3222 541 
z
" transform="scale(0.015625)"/>
       </defs>
       <use xlink:href="#ArialMT-32"/>
       <use xlink:href="#ArialMT-30" x="55.615234"/>
       <use xlink:href="#ArialMT-30" x="111.230469"/>
      </g>
     </g>
    </g>
    <g id="text_6">
     <!-- Time [min] -->
     <g style="fill: #262626" transform="translate(213.013906 331.387125) scale(0.1 -0.1)">
      <defs>
       <path id="ArialMT-54" d="M 1659 0 
L 1659 4041 
L 150 4041 
L 150 4581 
L 3781 4581 
L 3781 4041 
L 2266 4041 
L 2266 0 
L 1659 0 
z
" transform="scale(0.015625)"/>
       <path id="ArialMT-69" d="M 425 3934 
L 425 4581 
L 988 4581 
L 988 3934 
L 425 3934 
z
M 425 0 
L 425 3319 
L 988 3319 
L 988 0 
L 425 0 
z
" transform="scale(0.015625)"/>
       <path id="ArialMT-6d" d="M 422 0 
L 422 3319 
L 925 3319 
L 925 2853 
Q 1081 3097 1340 3245 
Q 1600 3394 1931 3394 
Q 2300 3394 2536 3241 
Q 2772 3088 2869 2813 
Q 3263 3394 3894 3394 
Q 4388 3394 4653 3120 
Q 4919 2847 4919 2278 
L 4919 0 
L 4359 0 
L 4359 2091 
Q 4359 2428 4304 2576 
Q 4250 2725 4106 2815 
Q 3963 2906 3769 2906 
Q 3419 2906 3187 2673 
Q 2956 2441 2956 1928 
L 2956 0 
L 2394 0 
L 2394 2156 
Q 2394 2531 2256 2718 
Q 2119 2906 1806 2906 
Q 1569 2906 1367 2781 
Q 1166 2656 1075 2415 
Q 984 2175 984 1722 
L 984 0 
L 422 0 
z
" transform="scale(0.015625)"/>
       <path id="ArialMT-65" d="M 2694 1069 
L 3275 997 
Q 3138 488 2766 206 
Q 2394 -75 1816 -75 
Q 1088 -75 661 373 
Q 234 822 234 1631 
Q 234 2469 665 2931 
Q 1097 3394 1784 3394 
Q 2450 3394 2872 2941 
Q 3294 2488 3294 1666 
Q 3294 1616 3291 1516 
L 816 1516 
Q 847 969 1125 678 
Q 1403 388 1819 388 
Q 2128 388 2347 550 
Q 2566 713 2694 1069 
z
M 847 1978 
L 2700 1978 
Q 2663 2397 2488 2606 
Q 2219 2931 1791 2931 
Q 1403 2931 1139 2672 
Q 875 2413 847 1978 
z
" transform="scale(0.015625)"/>
       <path id="ArialMT-20" transform="scale(0.015625)"/>
       <path id="ArialMT-5b" d="M 434 -1272 
L 434 4581 
L 1675 4581 
L 1675 4116 
L 997 4116 
L 997 -806 
L 1675 -806 
L 1675 -1272 
L 434 -1272 
z
" transform="scale(0.015625)"/>
       <path id="ArialMT-6e" d="M 422 0 
L 422 3319 
L 928 3319 
L 928 2847 
Q 1294 3394 1984 3394 
Q 2284 3394 2536 3286 
Q 2788 3178 2913 3003 
Q 3038 2828 3088 2588 
Q 3119 2431 3119 2041 
L 3119 0 
L 2556 0 
L 2556 2019 
Q 2556 2363 2490 2533 
Q 2425 2703 2258 2804 
Q 2091 2906 1866 2906 
Q 1506 2906 1245 2678 
Q 984 2450 984 1813 
L 984 0 
L 422 0 
z
" transform="scale(0.015625)"/>
       <path id="ArialMT-5d" d="M 1363 -1272 
L 122 -1272 
L 122 -806 
L 800 -806 
L 800 4116 
L 122 4116 
L 122 4581 
L 1363 4581 
L 1363 -1272 
z
" transform="scale(0.015625)"/>
      </defs>
      <use xlink:href="#ArialMT-54"/>
      <use xlink:href="#ArialMT-69" x="57.333984"/>
      <use xlink:href="#ArialMT-6d" x="79.550781"/>
      <use xlink:href="#ArialMT-65" x="162.851562"/>
      <use xlink:href="#ArialMT-20" x="218.466797"/>
      <use xlink:href="#ArialMT-5b" x="246.25"/>
      <use xlink:href="#ArialMT-6d" x="274.033203"/>
      <use xlink:href="#ArialMT-69" x="357.333984"/>
      <use xlink:href="#ArialMT-6e" x="379.550781"/>
      <use xlink:href="#ArialMT-5d" x="435.166016"/>
     </g>
    </g>
   </g>
   <g id="matplotlib.axis_2">
    <g id="ytick_1">
     <g id="line2d_11">
      <path d="M 57.6 295.473248 
L 414.72 295.473248 
" clip-path="url(#p9bc5218df3)" style="fill: none; stroke: #ffffff; stroke-opacity: 0.3; stroke-linecap: round"/>
     </g>
     <g id="line2d_12"/>
     <g id="text_7">
      <!-- 0 -->
      <g style="fill: #262626" transform="translate(48.539062 299.052155) scale(0.1 -0.1)">
       <use xlink:href="#ArialMT-30"/>
      </g>
     </g>
    </g>
    <g id="ytick_2">
     <g id="line2d_13">
      <path d="M 57.6 260.098508 
L 414.72 260.098508 
" clip-path="url(#p9bc5218df3)" style="fill: none; stroke: #ffffff; stroke-opacity: 0.3; stroke-linecap: round"/>
     </g>
     <g id="line2d_14"/>
     <g id="text_8">
      <!-- 250 -->
      <g style="fill: #262626" transform="translate(37.417187 263.677414) scale(0.1 -0.1)">
       <use xlink:href="#ArialMT-32"/>
       <use xlink:href="#ArialMT-35" x="55.615234"/>
       <use xlink:href="#ArialMT-30" x="111.230469"/>
      </g>
     </g>
    </g>
    <g id="ytick_3">
     <g id="line2d_15">
      <path d="M 57.6 224.723767 
L 414.72 224.723767 
" clip-path="url(#p9bc5218df3)" style="fill: none; stroke: #ffffff; stroke-opacity: 0.3; stroke-linecap: round"/>
     </g>
     <g id="line2d_16"/>
     <g id="text_9">
      <!-- 500 -->
      <g style="fill: #262626" transform="translate(37.417187 228.302673) scale(0.1 -0.1)">
       <use xlink:href="#ArialMT-35"/>
       <use xlink:href="#ArialMT-30" x="55.615234"/>
       <use xlink:href="#ArialMT-30" x="111.230469"/>
      </g>
     </g>
    </g>
    <g id="ytick_4">
     <g id="line2d_17">
      <path d="M 57.6 189.349027 
L 414.72 189.349027 
" clip-path="url(#p9bc5218df3)" style="fill: none; stroke: #ffffff; stroke-opacity: 0.3; stroke-linecap: round"/>
     </g>
     <g id="line2d_18"/>
     <g id="text_10">
      <!-- 750 -->
      <g style="fill: #262626" transform="translate(37.417187 192.927933) scale(0.1 -0.1)">
       <defs>
        <path id="ArialMT-37" d="M 303 3981 
L 303 4522 
L 3269 4522 
L 3269 4084 
Q 2831 3619 2401 2847 
Q 1972 2075 1738 1259 
Q 1569 684 1522 0 
L 944 0 
Q 953 541 1156 1306 
Q 1359 2072 1739 2783 
Q 2119 3494 2547 3981 
L 303 3981 
z
" transform="scale(0.015625)"/>
       </defs>
       <use xlink:href="#ArialMT-37"/>
       <use xlink:href="#ArialMT-35" x="55.615234"/>
       <use xlink:href="#ArialMT-30" x="111.230469"/>
      </g>
     </g>
    </g>
    <g id="ytick_5">
     <g id="line2d_19">
      <path d="M 57.6 153.974286 
L 414.72 153.974286 
" clip-path="url(#p9bc5218df3)" style="fill: none; stroke: #ffffff; stroke-opacity: 0.3; stroke-linecap: round"/>
     </g>
     <g id="line2d_20"/>
     <g id="text_11">
      <!-- 1000 -->
      <g style="fill: #262626" transform="translate(31.85625 157.553192) scale(0.1 -0.1)">
       <use xlink:href="#ArialMT-31"/>
       <use xlink:href="#ArialMT-30" x="55.615234"/>
       <use xlink:href="#ArialMT-30" x="111.230469"/>
       <use xlink:href="#ArialMT-30" x="166.845703"/>
      </g>
     </g>
    </g>
    <g id="ytick_6">
     <g id="line2d_21">
      <path d="M 57.6 118.599545 
L 414.72 118.599545 
" clip-path="url(#p9bc5218df3)" style="fill: none; stroke: #ffffff; stroke-opacity: 0.3; stroke-linecap: round"/>
     </g>
     <g id="line2d_22"/>
     <g id="text_12">
      <!-- 1250 -->
      <g style="fill: #262626" transform="translate(31.85625 122.178452) scale(0.1 -0.1)">
       <use xlink:href="#ArialMT-31"/>
       <use xlink:href="#ArialMT-32" x="55.615234"/>
       <use xlink:href="#ArialMT-35" x="111.230469"/>
       <use xlink:href="#ArialMT-30" x="166.845703"/>
      </g>
     </g>
    </g>
    <g id="ytick_7">
     <g id="line2d_23">
      <path d="M 57.6 83.224805 
L 414.72 83.224805 
" clip-path="url(#p9bc5218df3)" style="fill: none; stroke: #ffffff; stroke-opacity: 0.3; stroke-linecap: round"/>
     </g>
     <g id="line2d_24"/>
     <g id="text_13">
      <!-- 1500 -->
      <g style="fill: #262626" transform="translate(31.85625 86.803711) scale(0.1 -0.1)">
       <use xlink:href="#ArialMT-31"/>
       <use xlink:href="#ArialMT-35" x="55.615234"/>
       <use xlink:href="#ArialMT-30" x="111.230469"/>
       <use xlink:href="#ArialMT-30" x="166.845703"/>
      </g>
     </g>
    </g>
    <g id="ytick_8">
     <g id="line2d_25">
      <path d="M 57.6 47.850064 
L 414.72 47.850064 
" clip-path="url(#p9bc5218df3)" style="fill: none; stroke: #ffffff; stroke-opacity: 0.3; stroke-linecap: round"/>
     </g>
     <g id="line2d_26"/>
     <g id="text_14">
      <!-- 1750 -->
      <g style="fill: #262626" transform="translate(31.85625 51.428971) scale(0.1 -0.1)">
       <use xlink:href="#ArialMT-31"/>
       <use xlink:href="#ArialMT-37" x="55.615234"/>
       <use xlink:href="#ArialMT-35" x="111.230469"/>
       <use xlink:href="#ArialMT-30" x="166.845703"/>
      </g>
     </g>
    </g>
    <g id="text_15">
     <!-- Sensor response [$\mu$m] -->
     <g style="fill: #262626" transform="translate(25.75625 223.878) rotate(-90) scale(0.1 -0.1)">
      <defs>
       <path id="ArialMT-53" d="M 288 1472 
L 859 1522 
Q 900 1178 1048 958 
Q 1197 738 1509 602 
Q 1822 466 2213 466 
Q 2559 466 2825 569 
Q 3091 672 3220 851 
Q 3350 1031 3350 1244 
Q 3350 1459 3225 1620 
Q 3100 1781 2813 1891 
Q 2628 1963 1997 2114 
Q 1366 2266 1113 2400 
Q 784 2572 623 2826 
Q 463 3081 463 3397 
Q 463 3744 659 4045 
Q 856 4347 1234 4503 
Q 1613 4659 2075 4659 
Q 2584 4659 2973 4495 
Q 3363 4331 3572 4012 
Q 3781 3694 3797 3291 
L 3216 3247 
Q 3169 3681 2898 3903 
Q 2628 4125 2100 4125 
Q 1550 4125 1298 3923 
Q 1047 3722 1047 3438 
Q 1047 3191 1225 3031 
Q 1400 2872 2139 2705 
Q 2878 2538 3153 2413 
Q 3553 2228 3743 1945 
Q 3934 1663 3934 1294 
Q 3934 928 3725 604 
Q 3516 281 3123 101 
Q 2731 -78 2241 -78 
Q 1619 -78 1198 103 
Q 778 284 539 648 
Q 300 1013 288 1472 
z
" transform="scale(0.015625)"/>
       <path id="ArialMT-73" d="M 197 991 
L 753 1078 
Q 800 744 1014 566 
Q 1228 388 1613 388 
Q 2000 388 2187 545 
Q 2375 703 2375 916 
Q 2375 1106 2209 1216 
Q 2094 1291 1634 1406 
Q 1016 1563 777 1677 
Q 538 1791 414 1992 
Q 291 2194 291 2438 
Q 291 2659 392 2848 
Q 494 3038 669 3163 
Q 800 3259 1026 3326 
Q 1253 3394 1513 3394 
Q 1903 3394 2198 3281 
Q 2494 3169 2634 2976 
Q 2775 2784 2828 2463 
L 2278 2388 
Q 2241 2644 2061 2787 
Q 1881 2931 1553 2931 
Q 1166 2931 1000 2803 
Q 834 2675 834 2503 
Q 834 2394 903 2306 
Q 972 2216 1119 2156 
Q 1203 2125 1616 2013 
Q 2213 1853 2448 1751 
Q 2684 1650 2818 1456 
Q 2953 1263 2953 975 
Q 2953 694 2789 445 
Q 2625 197 2315 61 
Q 2006 -75 1616 -75 
Q 969 -75 630 194 
Q 291 463 197 991 
z
" transform="scale(0.015625)"/>
       <path id="ArialMT-6f" d="M 213 1659 
Q 213 2581 725 3025 
Q 1153 3394 1769 3394 
Q 2453 3394 2887 2945 
Q 3322 2497 3322 1706 
Q 3322 1066 3130 698 
Q 2938 331 2570 128 
Q 2203 -75 1769 -75 
Q 1072 -75 642 372 
Q 213 819 213 1659 
z
M 791 1659 
Q 791 1022 1069 705 
Q 1347 388 1769 388 
Q 2188 388 2466 706 
Q 2744 1025 2744 1678 
Q 2744 2294 2464 2611 
Q 2184 2928 1769 2928 
Q 1347 2928 1069 2612 
Q 791 2297 791 1659 
z
" transform="scale(0.015625)"/>
       <path id="ArialMT-72" d="M 416 0 
L 416 3319 
L 922 3319 
L 922 2816 
Q 1116 3169 1280 3281 
Q 1444 3394 1641 3394 
Q 1925 3394 2219 3213 
L 2025 2691 
Q 1819 2813 1613 2813 
Q 1428 2813 1281 2702 
Q 1134 2591 1072 2394 
Q 978 2094 978 1738 
L 978 0 
L 416 0 
z
" transform="scale(0.015625)"/>
       <path id="ArialMT-70" d="M 422 -1272 
L 422 3319 
L 934 3319 
L 934 2888 
Q 1116 3141 1344 3267 
Q 1572 3394 1897 3394 
Q 2322 3394 2647 3175 
Q 2972 2956 3137 2557 
Q 3303 2159 3303 1684 
Q 3303 1175 3120 767 
Q 2938 359 2589 142 
Q 2241 -75 1856 -75 
Q 1575 -75 1351 44 
Q 1128 163 984 344 
L 984 -1272 
L 422 -1272 
z
M 931 1641 
Q 931 1000 1190 694 
Q 1450 388 1819 388 
Q 2194 388 2461 705 
Q 2728 1022 2728 1688 
Q 2728 2322 2467 2637 
Q 2206 2953 1844 2953 
Q 1484 2953 1207 2617 
Q 931 2281 931 1641 
z
" transform="scale(0.015625)"/>
       <path id="DejaVuSans-Oblique-3bc" d="M -84 -1331 
L 856 3500 
L 1434 3500 
L 1009 1322 
Q 997 1256 987 1175 
Q 978 1094 978 1013 
Q 978 722 1161 565 
Q 1344 409 1684 409 
Q 2147 409 2431 671 
Q 2716 934 2816 1459 
L 3213 3500 
L 3788 3500 
L 3266 809 
Q 3253 750 3248 706 
Q 3244 663 3244 628 
Q 3244 531 3283 486 
Q 3322 441 3406 441 
Q 3438 441 3492 456 
Q 3547 472 3647 513 
L 3559 50 
Q 3422 -19 3297 -55 
Q 3172 -91 3053 -91 
Q 2847 -91 2730 40 
Q 2613 172 2613 403 
Q 2438 153 2195 31 
Q 1953 -91 1625 -91 
Q 1334 -91 1117 43 
Q 900 178 831 397 
L 494 -1331 
L -84 -1331 
z
" transform="scale(0.015625)"/>
      </defs>
      <use xlink:href="#ArialMT-53" transform="translate(0 0.203125)"/>
      <use xlink:href="#ArialMT-65" transform="translate(66.699219 0.203125)"/>
      <use xlink:href="#ArialMT-6e" transform="translate(122.314453 0.203125)"/>
      <use xlink:href="#ArialMT-73" transform="translate(177.929688 0.203125)"/>
      <use xlink:href="#ArialMT-6f" transform="translate(227.929688 0.203125)"/>
      <use xlink:href="#ArialMT-72" transform="translate(283.544922 0.203125)"/>
      <use xlink:href="#ArialMT-20" transform="translate(316.845703 0.203125)"/>
      <use xlink:href="#ArialMT-72" transform="translate(344.628906 0.203125)"/>
      <use xlink:href="#ArialMT-65" transform="translate(377.929688 0.203125)"/>
      <use xlink:href="#ArialMT-73" transform="translate(433.544922 0.203125)"/>
      <use xlink:href="#ArialMT-70" transform="translate(483.544922 0.203125)"/>
      <use xlink:href="#ArialMT-6f" transform="translate(539.160156 0.203125)"/>
      <use xlink:href="#ArialMT-6e" transform="translate(594.775391 0.203125)"/>
      <use xlink:href="#ArialMT-73" transform="translate(650.390625 0.203125)"/>
      <use xlink:href="#ArialMT-65" transform="translate(700.390625 0.203125)"/>
      <use xlink:href="#ArialMT-20" transform="translate(756.005859 0.203125)"/>
      <use xlink:href="#ArialMT-5b" transform="translate(783.789062 0.203125)"/>
      <use xlink:href="#DejaVuSans-Oblique-3bc" transform="translate(811.572266 0.203125)"/>
      <use xlink:href="#ArialMT-6d" transform="translate(875.195312 0.203125)"/>
      <use xlink:href="#ArialMT-5d" transform="translate(958.496094 0.203125)"/>
     </g>
    </g>
   </g>
   <g id="line2d_27">
    <path d="M 73.832727 295.473771 
L 75.01754 295.35714 
L 77.666314 295.290031 
L 79.94111 295.15944 
L 84.288898 294.89116 
L 93.649711 294.595399 
L 93.909541 294.281064 
L 94.430051 293.030459 
L 95.136403 292.5451 
L 95.656219 292.258474 
L 96.241085 291.645322 
L 96.891323 291.406047 
L 98.412853 291.036041 
L 100.783751 290.654003 
L 103.058389 290.260113 
L 103.448619 290.035125 
L 104.726629 289.598535 
L 109.673335 289.289781 
L 116.735757 289.441027 
L 117.385 289.190815 
L 124.464026 288.942553 
L 126.199144 288.925815 
L 128.519929 288.932699 
L 130.408498 289.008188 
L 132.915094 289.116697 
L 134.562676 289.006074 
L 134.82269 288.771224 
L 134.953996 288.469465 
L 135.211931 286.831917 
L 136.089245 282.016504 
L 136.478883 281.378632 
L 136.837046 281.120388 
L 138.400076 279.769158 
L 139.050351 279.229617 
L 139.691661 278.963013 
L 140.861833 278.592164 
L 141.518091 278.433184 
L 142.297882 278.182717 
L 149.393317 277.802168 
L 150.761114 277.993004 
L 154.108751 279.088376 
L 154.237732 279.165836 
L 156.8224 279.614092 
L 157.08101 279.546473 
L 157.741462 278.895433 
L 158.134176 278.268588 
L 158.525536 278.103371 
L 161.316814 277.791854 
L 162.095966 277.61752 
L 163.282126 277.585502 
L 167.838099 277.830327 
L 168.632781 277.943965 
L 170.935901 277.815703 
L 171.195015 277.6053 
L 171.3265 277.334727 
L 171.45719 276.798024 
L 171.714679 274.076028 
L 172.421885 266.579278 
L 172.808469 265.066557 
L 173.263712 264.207004 
L 174.434289 262.324637 
L 174.764984 261.87987 
L 175.433182 260.823862 
L 176.163465 260.079975 
L 177.072521 259.145277 
L 177.940695 258.615096 
L 178.58712 258.314551 
L 179.331323 258.02902 
L 180.731917 257.237674 
L 181.252312 256.972616 
L 182.816482 256.677477 
L 183.582152 256.548263 
L 184.231212 256.371827 
L 185.14124 256.186866 
L 186.712857 256.006811 
L 188.165548 256.128207 
L 189.527272 256.389966 
L 191.956776 256.830815 
L 193.449056 256.854628 
L 193.70929 256.565587 
L 194.489332 255.139569 
L 195.738674 254.840106 
L 200.638549 254.441054 
L 203.815505 254.502561 
L 207.451733 254.642962 
L 208.104607 254.438939 
L 208.363978 253.927403 
L 208.493746 253.263662 
L 208.624068 251.954093 
L 209.093156 250.024143 
L 209.481542 245.635912 
L 210.001887 242.970869 
L 210.262175 241.88374 
L 210.783216 241.280037 
L 211.174644 240.042307 
L 211.825221 238.135867 
L 211.954346 237.730346 
L 212.433154 237.261853 
L 212.822457 236.175033 
L 213.605366 234.941244 
L 214.100898 234.608572 
L 214.490107 234.030083 
L 215.274522 233.42941 
L 215.789291 233.278845 
L 216.698948 232.150031 
L 216.957689 231.997348 
L 217.815736 231.763538 
L 218.725762 231.431112 
L 219.66788 231.246303 
L 220.058258 230.875155 
L 220.446269 230.354802 
L 221.654582 230.050703 
L 223.666399 229.666617 
L 225.138996 229.598069 
L 226.655629 229.738756 
L 228.944358 230.105863 
L 230.008409 230.069344 
L 230.26648 229.80461 
L 230.556118 229.196603 
L 230.942336 228.389527 
L 231.465293 228.088593 
L 232.275879 227.986534 
L 236.83254 227.434025 
L 241.497957 227.447149 
L 244.284748 227.548274 
L 244.805446 227.481969 
L 245.064244 227.215268 
L 245.420369 226.223033 
L 245.681731 222.676356 
L 246.202308 210.891349 
L 246.591427 207.216696 
L 247.991028 203.244761 
L 248.357181 202.734452 
L 250.187395 199.207554 
L 250.707204 198.672334 
L 251.219519 197.720366 
L 251.611601 197.332994 
L 252.521208 196.904711 
L 253.170159 196.541051 
L 253.430336 196.119922 
L 253.690939 195.504282 
L 254.873991 194.88163 
L 256.100826 194.533389 
L 257.436399 194.418251 
L 257.956343 194.295644 
L 258.524448 193.670832 
L 258.787336 193.33269 
L 259.307654 193.194387 
L 261.908259 193.022204 
L 263.461521 192.844702 
L 264.111859 192.662067 
L 265.12068 192.463699 
L 266.655147 192.173971 
L 266.913311 191.841882 
L 267.174263 191.346638 
L 268.594751 190.999548 
L 269.376135 191.170884 
L 269.636716 191.742345 
L 269.764805 192.498267 
L 270.202308 196.921704 
L 270.32876 197.080651 
L 270.756278 196.824534 
L 271.017568 196.380441 
L 271.407849 196.184763 
L 271.797099 195.962371 
L 271.924388 195.697839 
L 272.367829 195.315046 
L 272.758142 194.575341 
L 273.148627 193.982659 
L 273.536533 193.243012 
L 274.433457 192.951429 
L 275.683543 192.465413 
L 276.854345 192.349646 
L 280.714672 192.128725 
L 281.036448 191.856101 
L 281.296923 191.524058 
L 281.557564 191.34875 
L 281.816763 191.141892 
L 281.946837 191.110165 
L 285.171889 191.147328 
L 285.432064 191.402989 
L 285.717498 191.627172 
L 285.978822 191.524742 
L 287.307142 192.210814 
L 289.586259 192.156801 
L 289.843225 191.999943 
L 290.118872 191.540771 
L 290.248804 191.230006 
L 290.380788 190.598092 
L 290.638316 187.53066 
L 291.069583 181.176051 
L 291.46217 177.937797 
L 291.851253 176.127477 
L 292.806907 173.720251 
L 293.329461 172.676971 
L 293.643132 171.861523 
L 294.81197 169.454737 
L 295.261095 169.041901 
L 295.518182 168.567208 
L 295.908924 167.751541 
L 296.365748 167.424442 
L 297.554326 166.697048 
L 297.893111 166.142385 
L 298.151835 165.740414 
L 298.67118 165.460444 
L 299.666071 165.139178 
L 300.924372 164.816723 
L 301.184078 164.483296 
L 301.577145 163.912933 
L 302.192712 163.649283 
L 304.816033 163.09905 
L 307.838745 162.860108 
L 309.287506 163.002168 
L 311.29904 163.117116 
L 311.558408 163.006277 
L 311.819204 162.557485 
L 312.122495 162.124954 
L 312.515626 161.216843 
L 313.294333 160.219638 
L 316.265838 159.678754 
L 319.962509 159.386914 
L 322.127453 159.388083 
L 323.845262 159.46607 
L 325.99533 159.418639 
L 326.256216 159.204237 
L 326.515595 158.36709 
L 326.773226 155.368132 
L 327.337032 145.034751 
L 327.740192 141.474438 
L 328.389966 138.084126 
L 328.955235 135.982323 
L 330.560963 130.374799 
L 331.083456 128.955595 
L 331.530399 128.081318 
L 332.181733 126.759633 
L 333.415903 125.049375 
L 335.196983 123.111485 
L 335.795568 122.698905 
L 337.18311 121.607465 
L 337.706318 121.169599 
L 339.232998 120.430753 
L 340.377613 119.960823 
L 340.770614 119.603155 
L 341.143804 119.534365 
L 341.406333 119.301957 
L 341.81817 119.243445 
L 342.211511 119.070358 
L 343.505296 119.057666 
L 343.894899 119.167257 
L 344.674408 118.967779 
L 344.937202 119.024262 
L 345.723004 119.688069 
L 346.115307 119.952402 
L 347.044633 120.161037 
L 347.95657 120.204458 
L 348.380954 120.005523 
L 348.804441 118.829685 
L 349.454171 116.966393 
L 350.408575 116.502006 
L 353.911319 115.872868 
L 355.226802 115.226816 
L 355.486552 115.109983 
L 355.774196 115.208569 
L 356.163465 115.076141 
L 356.421024 115.195143 
L 356.812295 115.070428 
L 357.624158 115.435479 
L 358.016135 115.665993 
L 358.274792 115.77857 
L 358.701085 115.610807 
L 359.090103 115.968011 
L 359.61116 116.0706 
L 361.784845 116.092363 
L 362.305433 115.970639 
L 362.482258 115.846157 
L 362.744006 115.131779 
L 362.872839 114.199857 
L 363.134201 109.275939 
L 363.653954 95.832501 
L 364.355323 89.127013 
L 365.005054 85.605 
L 366.819373 79.676537 
L 367.729844 77.726845 
L 368.063488 77.337987 
L 368.601104 76.129746 
L 369.121729 75.734892 
L 369.586773 75.476102 
L 369.848574 75.177173 
L 370.498744 73.872825 
L 371.75957 73.26487 
L 372.115146 72.758223 
L 372.5057 71.879619 
L 372.898201 71.645348 
L 374.560094 71.096001 
L 374.929093 70.600103 
L 375.32146 69.703935 
L 375.734683 69.490704 
L 377.289867 69.190283 
L 379.511769 69.057554 
L 381.227862 69.079204 
L 384.195668 69.438479 
L 384.456268 68.243695 
L 384.717541 64.812078 
L 384.843833 61.855237 
L 385.673484 54.302899 
L 386.067327 53.568 
L 386.197085 53.673103 
L 386.653532 56.139182 
L 386.916901 65.859082 
L 387.174105 93.611799 
L 387.434286 162.83727 
L 387.826101 265.507587 
L 388.540144 285.750541 
L 388.80331 287.164229 
L 389.19287 288.107948 
L 389.322688 288.248245 
L 391.617637 288.717747 
L 394.416524 288.847042 
L 398.487273 288.805067 
L 398.487273 288.805067 
" clip-path="url(#p9bc5218df3)" style="fill: none; stroke: #0000ff; stroke-width: 0.5; stroke-linecap: round"/>
   </g>
   <g id="line2d_28">
    <path d="M 73.832727 295.473236 
L 74.6258 295.308597 
L 77.148634 295.136329 
L 82.370266 294.915433 
L 93.516158 294.731242 
L 93.909541 294.606125 
L 94.169532 294.306135 
L 95.136403 292.462428 
L 95.784431 291.911727 
L 96.891323 291.278447 
L 99.531108 289.985832 
L 100.914278 289.585743 
L 103.058389 289.187112 
L 105.529877 288.913771 
L 106.68521 288.719807 
L 107.46138 288.422007 
L 109.803203 288.155047 
L 111.92605 288.190693 
L 115.691056 288.501887 
L 116.735757 288.671774 
L 116.994807 288.51337 
L 117.643842 287.845217 
L 118.439326 287.761057 
L 121.095532 287.563444 
L 124.293686 287.523911 
L 126.460079 287.529632 
L 130.147902 287.584858 
L 132.915094 287.780713 
L 135.08397 287.67857 
L 135.437796 287.327566 
L 135.697816 286.131185 
L 136.346104 280.916996 
L 136.605293 279.912064 
L 137.357369 278.57445 
L 138.658518 277.271639 
L 139.050351 276.580165 
L 139.439484 276.270147 
L 141.907945 275.61547 
L 144.273143 275.327351 
L 149.134215 275.154482 
L 150.24021 275.003099 
L 150.501423 275.007497 
L 150.891045 275.161166 
L 154.108751 275.696483 
L 155.001524 275.870835 
L 156.692581 276.132896 
L 157.342347 276.088807 
L 157.741462 275.986103 
L 158.134176 275.315976 
L 158.653175 274.367628 
L 158.961389 274.262318 
L 161.186167 274.032827 
L 162.227569 273.928438 
L 165.944655 273.922842 
L 170.935901 274.13404 
L 171.45719 274.063664 
L 171.714679 273.869588 
L 171.901593 273.62361 
L 172.160837 272.305538 
L 173.07035 264.308086 
L 173.914333 262.15661 
L 176.422192 257.741831 
L 177.203941 257.120989 
L 178.200251 256.575023 
L 178.460286 256.335028 
L 179.0715 255.485716 
L 179.589501 255.204274 
L 180.861588 254.78008 
L 182.426883 254.4573 
L 185.534322 253.805721 
L 186.06502 253.248736 
L 186.324729 252.956173 
L 186.844078 252.827721 
L 188.165548 252.823723 
L 188.846811 252.950047 
L 189.105881 253.253658 
L 189.396003 253.691001 
L 189.787283 253.930111 
L 191.128178 254.241701 
L 193.57973 254.530709 
L 193.839466 254.463493 
L 194.100625 254.164802 
L 194.360519 253.477604 
L 194.489332 253.015447 
L 195.349161 252.166613 
L 197.041109 251.868329 
L 201.157486 251.601358 
L 208.493746 251.570522 
L 208.624068 251.440317 
L 209.093156 251.185383 
L 209.352389 249.791761 
L 210.262175 238.754409 
L 210.783216 237.669375 
L 211.174644 235.68582 
L 211.954346 232.889174 
L 212.433154 232.281478 
L 212.822457 231.044985 
L 213.474746 229.553752 
L 213.605366 229.337121 
L 214.100898 229.12237 
L 215.274522 227.412546 
L 215.917581 227.121881 
L 216.567747 226.729783 
L 217.815736 226.149455 
L 218.463573 225.267059 
L 218.725762 225.1498 
L 219.66788 224.977906 
L 221.39586 224.564589 
L 223.666399 223.994491 
L 223.925679 223.555892 
L 225.527726 223.11783 
L 226.655629 223.243839 
L 226.917555 223.51243 
L 227.178176 223.880113 
L 227.497105 224.064444 
L 227.904006 224.310156 
L 228.965653 224.42794 
L 230.134082 224.426759 
L 230.42372 224.278989 
L 230.680949 223.800983 
L 231.07161 222.87837 
L 231.460397 222.570084 
L 232.532224 222.405795 
L 234.13121 222.158851 
L 234.432058 221.857526 
L 234.835251 221.306004 
L 235.354183 221.164403 
L 237.144525 221.039418 
L 239.864801 220.981256 
L 245.062645 221.091846 
L 245.416582 221.018396 
L 245.6765 220.722113 
L 245.81007 220.34466 
L 246.06991 218.336677 
L 246.81838 208.444994 
L 247.20876 205.950878 
L 247.85863 203.502737 
L 248.766596 201.463219 
L 249.288216 200.111019 
L 249.792385 199.505392 
L 250.183702 198.870287 
L 250.574807 198.070685 
L 250.955842 197.740228 
L 251.479203 197.375381 
L 251.996896 196.917022 
L 252.515586 196.069639 
L 252.908002 195.73145 
L 253.962889 195.244447 
L 255.840628 194.683001 
L 256.356073 194.474302 
L 256.913462 193.791052 
L 257.304002 193.616342 
L 258.78586 193.477808 
L 263.329123 193.098575 
L 264.596457 192.831894 
L 266.651637 192.446193 
L 266.912107 192.119983 
L 267.041865 191.83113 
L 267.94392 191.378499 
L 269.374183 191.293064 
L 269.632407 191.546741 
L 270.195171 193.090032 
L 271.533167 193.407038 
L 272.365178 193.189777 
L 273.402944 192.529236 
L 273.9097 192.401348 
L 274.560988 191.535675 
L 275.079063 191.382266 
L 283.586743 191.017537 
L 290.247199 191.123323 
L 290.504726 190.906848 
L 290.805875 190.096304 
L 291.065753 187.516998 
L 291.717663 178.486679 
L 292.154919 175.70064 
L 292.673318 173.666902 
L 293.326094 171.427236 
L 294.67838 167.786563 
L 295.127505 167.147265 
L 295.775334 165.896887 
L 297.029873 164.519043 
L 297.420736 164.026039 
L 299.272369 163.01092 
L 299.921876 162.244952 
L 301.050488 161.809178 
L 302.582303 161.130969 
L 302.971352 160.70458 
L 305.464256 159.989702 
L 306.909711 159.880407 
L 308.352435 159.996612 
L 311.424818 160.397785 
L 311.988905 160.277182 
L 312.252651 159.918225 
L 313.031123 158.184016 
L 313.160744 158.085026 
L 315.22334 157.526307 
L 315.48523 157.344346 
L 315.874784 156.920226 
L 316.132249 156.788332 
L 319.828919 156.302674 
L 321.732802 156.379781 
L 322.64447 156.49795 
L 325.565418 156.696074 
L 326.382005 156.616605 
L 326.639636 156.375883 
L 326.77012 156.0379 
L 327.070965 154.156098 
L 327.476396 146.396634 
L 327.865606 139.517048 
L 328.256376 136.237376 
L 330.0394 129.058175 
L 330.560302 127.372012 
L 331.265849 125.663375 
L 332.305764 123.702119 
L 332.75905 123.256525 
L 333.152829 122.655473 
L 333.540175 122.108852 
L 334.416042 121.448495 
L 335.403071 120.689416 
L 335.790733 120.176774 
L 336.440573 119.748193 
L 337.182477 119.450083 
L 338.836931 118.702841 
L 339.465794 118.120832 
L 340.637025 117.615225 
L 343.371707 117.205187 
L 344.932106 117.288065 
L 347.82298 117.895817 
L 348.541862 117.882463 
L 348.798765 117.688117 
L 349.060569 117.179558 
L 349.320581 116.340394 
L 350.274986 115.29854 
L 351.761126 114.950498 
L 352.283398 114.787521 
L 352.740246 114.492536 
L 353.12808 114.199067 
L 353.77773 114.00589 
L 354.960514 113.81262 
L 356.029875 113.743378 
L 358.141203 113.732363 
L 359.47757 113.82259 
L 361.909434 113.861881 
L 362.73925 113.755975 
L 363.000612 113.466865 
L 363.130668 113.094347 
L 363.261145 112.364082 
L 363.520364 108.63555 
L 363.960581 98.513406 
L 364.349568 92.045901 
L 364.871464 88.010173 
L 365.321712 85.977118 
L 366.230449 81.513499 
L 366.685783 79.722608 
L 367.335748 77.228125 
L 368.058411 75.465285 
L 369.453183 73.171078 
L 370.365155 72.100802 
L 371.495337 70.761554 
L 372.372111 70.308284 
L 373.515091 69.655316 
L 374.167541 68.54373 
L 374.795503 68.263106 
L 375.993743 67.823391 
L 380.156258 67.266048 
L 381.223657 67.427018 
L 382.976303 67.786531 
L 384.062078 67.863989 
L 384.322679 67.760418 
L 384.583952 67.281714 
L 385.022626 65.440854 
L 385.803119 55.028473 
L 386.063496 53.935991 
L 386.193213 53.942636 
L 386.519942 54.353827 
L 386.783312 57.162053 
L 387.040515 65.382024 
L 387.300696 85.116673 
L 387.560297 122.309296 
L 387.692511 155.969928 
L 388.016416 204.641897 
L 388.276827 264.44721 
L 388.538721 280.372342 
L 388.797001 284.793134 
L 389.059281 286.238944 
L 389.189098 286.580099 
L 390.740703 287.378944 
L 391.741425 287.592085 
L 393.005924 287.748173 
L 393.783656 287.79134 
L 395.063962 287.857345 
L 398.354875 287.859014 
L 398.354875 287.859014 
" clip-path="url(#p9bc5218df3)" style="fill: none; stroke: #ff0000; stroke-width: 0.5; stroke-linecap: round"/>
   </g>
   <g id="line2d_29">
    <path d="M 73.832727 295.473248 
L 90.551202 295.367963 
L 93.076169 295.209414 
L 93.387648 294.969854 
L 94.039478 294.199222 
L 94.74649 293.650836 
L 95.136403 293.062948 
L 95.526411 292.339967 
L 95.981957 292.144521 
L 97.875923 291.762348 
L 98.542712 291.545523 
L 98.747242 291.417759 
L 99.398627 290.458329 
L 100.13242 290.329435 
L 101.784318 290.17513 
L 107.46138 289.889366 
L 111.664766 289.807326 
L 117.385 289.801667 
L 117.922403 289.365732 
L 118.310102 289.030596 
L 119.246648 288.471936 
L 121.613895 288.36981 
L 130.944596 288.517399 
L 131.276513 288.699179 
L 131.926279 289.594627 
L 132.657547 289.671531 
L 135.08397 289.63882 
L 135.437796 289.501105 
L 135.697816 288.975528 
L 136.089245 286.951726 
L 136.605293 283.576884 
L 137.225387 282.32911 
L 138.400076 281.327274 
L 138.790488 280.919393 
L 139.439484 280.641153 
L 142.699 280.175697 
L 145.63631 280.061782 
L 146.9876 279.999372 
L 147.897466 279.701533 
L 148.157962 279.5682 
L 150.371634 279.498556 
L 151.495666 279.615724 
L 152.444915 280.050854 
L 157.08101 280.618288 
L 157.875144 280.557242 
L 158.134176 280.312985 
L 158.653175 279.43852 
L 158.961389 279.28886 
L 163.962927 278.9573 
L 171.45719 279.129057 
L 171.901593 279.026606 
L 172.160837 278.743935 
L 172.421885 277.794867 
L 172.808469 274.338077 
L 173.07035 272.048502 
L 173.65036 269.811935 
L 174.434289 268.093968 
L 174.8947 267.445871 
L 175.561244 266.352962 
L 176.163465 265.813567 
L 177.940695 264.451343 
L 180.472015 263.26391 
L 182.14368 262.901805 
L 183.195029 262.730322 
L 184.231212 262.567254 
L 188.292595 262.218078 
L 189.787283 262.458097 
L 191.516015 262.915083 
L 193.449056 263.204298 
L 193.969406 263.204262 
L 194.227985 263.015652 
L 195.349161 261.164961 
L 196.000025 260.955424 
L 199.59737 260.375924 
L 199.858106 260.164197 
L 200.248338 259.77104 
L 200.638549 259.694345 
L 203.381594 259.704863 
L 203.686128 259.814752 
L 203.815505 259.953072 
L 205.268315 260.507019 
L 206.609604 260.50788 
L 207.711619 260.532564 
L 208.624068 260.451203 
L 209.221557 260.254711 
L 209.481542 259.555318 
L 209.743 257.654166 
L 210.262175 250.196369 
L 210.783216 248.557084 
L 211.174644 245.850873 
L 211.954346 242.478859 
L 212.433154 241.82412 
L 212.822457 240.473949 
L 213.605366 238.773022 
L 214.100898 238.442158 
L 214.490107 237.826472 
L 215.143708 236.971193 
L 215.274522 236.742409 
L 215.917581 236.366836 
L 216.957689 235.506415 
L 217.49267 235.323069 
L 218.336114 234.574948 
L 218.725762 234.333728 
L 219.795977 234.040934 
L 221.526752 233.27229 
L 222.173694 232.880343 
L 223.016007 232.657479 
L 223.925679 232.300011 
L 226.655629 232.152253 
L 227.307665 232.277043 
L 228.163888 232.719759 
L 229.876011 232.989492 
L 230.42372 232.98828 
L 230.680949 232.807771 
L 230.942489 232.27631 
L 231.460397 230.902631 
L 231.884322 230.50991 
L 232.793331 230.157605 
L 234.70695 229.437765 
L 235.485826 229.176644 
L 237.925833 228.856029 
L 239.541295 228.769817 
L 241.645743 228.936778 
L 242.635288 229.047 
L 245.062645 229.077581 
L 245.549333 229.008901 
L 245.81007 228.782524 
L 246.06991 227.96518 
L 246.329954 225.204097 
L 246.949906 214.471585 
L 247.336433 211.394011 
L 247.85863 209.275079 
L 248.224783 208.323415 
L 248.613205 207.32535 
L 248.899558 206.647734 
L 249.288216 205.560668 
L 249.664345 205.030511 
L 250.31362 203.590333 
L 251.087121 202.633637 
L 251.479203 201.815275 
L 251.996896 201.401502 
L 253.037761 200.539504 
L 253.425742 199.80967 
L 253.558542 199.684241 
L 255.419999 198.88332 
L 255.680411 198.551901 
L 256.098741 197.997844 
L 256.490468 197.875012 
L 258.91381 197.572387 
L 263.329123 197.017391 
L 263.59021 196.735679 
L 263.979462 196.252151 
L 268.59318 195.307022 
L 269.374183 195.325778 
L 269.632407 195.577492 
L 269.939119 196.618886 
L 270.195171 198.236417 
L 271.140411 198.948686 
L 271.663509 198.879278 
L 271.790798 198.778278 
L 272.234239 198.576897 
L 272.752599 197.661373 
L 273.402944 196.976806 
L 273.9097 196.797771 
L 274.299868 196.314509 
L 274.949337 196.063478 
L 275.6798 195.951153 
L 276.328079 195.915621 
L 278.381229 195.679843 
L 279.668242 195.744744 
L 284.520607 195.447939 
L 290.504726 195.508794 
L 290.805875 195.280759 
L 291.065753 194.434163 
L 291.328581 191.869331 
L 291.976233 182.210335 
L 292.803993 177.770466 
L 293.76471 174.216559 
L 294.867782 171.600363 
L 295.384592 170.538012 
L 295.775334 169.926355 
L 296.900237 168.63198 
L 297.289884 168.121127 
L 298.278072 167.515276 
L 298.666075 167.200016 
L 299.272369 166.411612 
L 299.791907 166.111399 
L 300.790783 165.791958 
L 302.322662 164.964036 
L 302.712423 164.394467 
L 303.357545 164.052615 
L 304.421928 163.696042 
L 306.780994 163.279052 
L 308.093646 163.346629 
L 311.552405 163.791859 
L 312.252651 163.63314 
L 312.510083 163.212021 
L 313.160744 161.33495 
L 314.380581 160.862609 
L 315.354674 160.623173 
L 315.745963 160.424596 
L 316.005762 160.049935 
L 316.132249 159.740057 
L 316.99356 159.227369 
L 318.296073 159.045301 
L 319.20488 158.974415 
L 321.319623 158.953747 
L 322.123904 159.081757 
L 322.513537 159.145522 
L 323.321318 159.137355 
L 324.653186 159.166232 
L 326.639636 159.076689 
L 326.90328 158.823333 
L 327.070965 158.498389 
L 327.347871 156.744587 
L 327.606602 152.327928 
L 328.127972 143.222466 
L 328.432167 141.073381 
L 328.951006 138.472437 
L 330.560302 132.04695 
L 331.528021 129.626965 
L 332.048144 128.753808 
L 333.282313 126.870145 
L 334.00652 126.123973 
L 334.416042 125.402019 
L 335.063394 124.912328 
L 335.528881 124.630977 
L 335.790733 124.276105 
L 336.183414 123.633628 
L 336.660033 123.391494 
L 338.446277 122.493474 
L 339.099408 121.582844 
L 339.85573 121.23551 
L 341.818181 120.393467 
L 342.462541 119.795858 
L 342.979563 119.623161 
L 343.761309 119.571822 
L 344.410493 119.685113 
L 344.803613 119.86281 
L 345.331044 120.475373 
L 345.722665 120.728704 
L 346.370379 120.865419 
L 347.690681 121.094169 
L 348.378409 121.183227 
L 348.929239 121.040826 
L 349.190173 120.518248 
L 349.320581 119.967665 
L 349.624577 119.269858 
L 350.016849 117.802313 
L 350.406193 117.314716 
L 350.79459 117.124562 
L 351.501874 116.872383 
L 353.390752 116.1936 
L 353.77773 115.684009 
L 355.093212 115.296377 
L 356.029875 115.242655 
L 356.809545 115.200807 
L 357.882546 115.214469 
L 359.218987 115.359444 
L 360.035762 115.357617 
L 361.651256 115.393045 
L 363.130668 115.184668 
L 363.261145 115.009672 
L 363.390073 114.623394 
L 363.697521 112.46582 
L 364.088944 104.112762 
L 364.481597 97.521914 
L 364.871464 94.413686 
L 365.710848 90.377408 
L 366.944998 84.712528 
L 367.596254 82.542389 
L 369.584897 78.691718 
L 371.102417 76.515443 
L 372.24445 75.191827 
L 374.55764 72.851017 
L 375.0591 72.530895 
L 375.993743 71.91696 
L 376.377227 71.718588 
L 376.634396 71.36819 
L 377.023689 70.792812 
L 377.678921 70.477173 
L 378.588497 70.160725 
L 380.286751 70.076087 
L 381.094273 70.235066 
L 381.613752 70.488132 
L 383.238873 71.690181 
L 384.451297 71.798757 
L 384.710244 71.683548 
L 385.022626 71.481381 
L 385.283371 70.172843 
L 385.671203 64.955142 
L 386.193213 58.698736 
L 386.519942 58.632368 
L 386.650487 59.502042 
L 386.913094 65.077017 
L 387.173838 79.421072 
L 387.430766 112.301688 
L 388.146291 255.843987 
L 388.406555 279.707761 
L 388.669721 285.880944 
L 388.929839 287.505068 
L 389.189098 288.000727 
L 390.480472 288.504789 
L 391.094068 289.177321 
L 391.353592 289.540817 
L 391.872238 289.689875 
L 393.783656 289.790917 
L 398.354875 289.833106 
L 398.354875 289.833106 
" clip-path="url(#p9bc5218df3)" style="fill: none; stroke: #008000; stroke-width: 0.5; stroke-linecap: round"/>
   </g>
   <g id="patch_3">
    <path d="M 57.6 307.584 
L 57.6 41.472 
" style="fill: none"/>
   </g>
   <g id="patch_4">
    <path d="M 414.72 307.584 
L 414.72 41.472 
" style="fill: none"/>
   </g>
   <g id="patch_5">
    <path d="M 57.6 307.584 
L 414.72 307.584 
" style="fill: none"/>
   </g>
   <g id="patch_6">
    <path d="M 57.6 41.472 
L 414.72 41.472 
" style="fill: none"/>
   </g>
  </g>
 </g>
 <defs>
  <clipPath id="p9bc5218df3">
   <rect x="57.6" y="41.472" width="357.12" height="266.112"/>
  </clipPath>
 </defs>
</svg>
